<svg width="226" height="150" viewBox="0 0 226 150" fill="none" xmlns="http://www.w3.org/2000/svg">
<g clip-path="url(#clip0_3_451)">
<path d="M159.804 7.7356C159.604 8.9356 159.204 10.1356 159.204 11.3356C159.204 12.5356 159.704 12.8356 160.804 12.7356C165.304 12.4356 169.804 12.3356 174.304 12.6356C180.704 13.1356 186.804 14.2356 192.604 17.2356C194.904 18.4356 196.904 20.0356 198.404 22.1356C201.304 26.0356 200.604 30.7356 196.504 33.4356C191.904 36.4356 186.704 36.8356 181.604 35.8356C170.804 33.7356 162.904 27.7356 158.504 17.5356C158.404 17.3356 158.304 17.1356 158.304 16.9356C157.304 13.8356 157.304 13.8356 154.104 13.9356C152.304 13.9356 150.604 14.1356 148.804 14.1356C148.204 14.1356 147.704 14.1356 147.804 15.0356C148.404 18.2356 147.704 21.1356 145.404 23.9356C149.004 24.0356 152.204 24.6356 155.204 25.8356C164.304 29.5356 171.204 35.9356 176.404 44.1356C179.504 48.9356 181.704 54.1356 182.304 59.9356C183.004 67.2356 179.404 72.5356 172.304 74.4356C172.004 74.5356 171.804 74.5356 171.504 74.9356C172.304 75.1356 173.104 75.3356 173.904 75.6356C179.704 77.6356 182.904 82.9356 182.404 89.3356C181.804 96.2356 178.904 102.236 174.904 107.736C169.304 115.436 162.404 121.436 153.204 124.336C150.804 125.136 148.204 125.436 145.404 125.536C146.804 127.336 147.804 129.236 147.904 131.436C147.904 131.836 148.004 132.336 147.904 132.736C147.704 135.236 147.704 135.236 150.304 135.336C152.304 135.436 154.304 135.536 156.304 135.636C157.204 135.736 157.604 135.436 157.804 134.536C160.004 122.836 176.004 110.036 191.904 113.936C193.604 114.336 195.304 115.036 196.804 116.036C200.804 118.836 201.604 123.336 198.604 127.336C196.404 130.236 193.404 132.036 190.204 133.336C182.304 136.636 173.904 137.136 165.504 136.836C163.904 136.736 162.404 136.736 160.804 136.636C159.904 136.536 159.504 136.936 159.504 137.836C159.404 139.236 159.904 140.436 160.304 142.036C158.504 140.836 157.804 139.436 157.804 137.636C157.804 136.636 157.404 136.336 156.404 136.236C153.804 136.236 151.304 136.136 148.704 135.936C147.704 135.836 147.304 136.336 146.904 137.236C143.704 144.936 136.004 149.736 127.804 149.336C127.004 149.336 126.104 149.136 125.304 148.936C120.704 147.836 119.404 143.536 122.504 140.036C125.304 136.836 129.204 135.736 133.304 135.536C136.304 135.336 139.404 135.236 142.504 135.236C143.704 135.236 144.204 134.836 144.504 133.736C145.204 131.536 145.404 129.236 145.004 127.036C144.804 125.936 144.304 125.236 143.004 125.436C141.904 125.536 140.804 125.436 139.704 124.936C139.104 124.636 138.504 124.336 138.704 123.636C138.904 122.936 139.604 122.936 140.204 122.936C141.204 122.936 142.104 123.136 142.904 123.736C144.704 125.036 146.704 124.736 148.604 124.436C154.204 123.336 158.704 120.236 162.804 116.436C169.604 110.036 174.504 102.536 176.804 93.4356C177.604 90.4356 177.904 87.4356 177.204 84.3356C176.004 79.4356 172.904 76.6356 168.004 75.7356C161.304 74.6356 156.204 77.4356 151.804 81.9356C144.804 89.2356 140.404 98.0356 138.704 108.036C138.604 108.436 138.604 108.836 138.604 109.236C138.604 109.436 138.704 109.636 138.704 110.036C140.504 109.036 142.204 108.136 143.904 107.236C147.204 105.536 150.604 103.936 154.304 103.436C158.204 102.936 161.004 104.336 162.104 107.536C162.204 107.836 162.204 108.136 162.304 108.536C162.104 108.436 161.904 108.436 161.904 108.436C160.104 104.736 158.304 103.836 154.304 104.736C152.104 105.236 150.104 106.236 148.204 107.336C143.504 110.036 139.104 113.136 134.604 116.136C130.604 118.736 126.404 120.836 121.604 121.436C118.804 121.736 116.104 121.336 114.304 118.736C113.204 117.136 113.004 115.536 113.804 113.736C114.204 113.836 114.104 114.136 114.104 114.336C113.404 117.936 115.104 119.936 118.704 119.836C122.504 119.736 125.804 118.036 129.004 116.236C131.704 114.736 134.204 113.036 136.804 111.436C137.504 111.036 137.704 110.536 137.804 109.736C139.204 98.1356 143.704 87.9356 152.604 80.0356C155.404 77.5356 158.804 75.9356 162.904 74.9356C160.004 74.0356 157.504 73.3356 155.404 71.8356C148.604 67.2356 144.304 60.8356 141.204 53.3356C139.404 49.0356 138.104 44.5356 137.804 39.8356C137.804 39.1356 137.404 38.7356 136.904 38.4356C133.104 36.1356 129.604 33.5356 125.604 31.7356C123.404 30.7356 121.204 29.9356 118.704 29.9356C115.204 29.9356 113.504 31.8356 114.104 35.3356C114.104 35.5356 114.104 35.7356 114.104 36.0356C112.304 33.8356 114.104 29.3356 117.904 28.4356C120.004 27.9356 122.104 28.1356 124.204 28.6356C128.704 29.7356 132.604 31.9356 136.404 34.6356C140.304 37.3356 144.304 40.0356 148.504 42.3356C150.804 43.6356 153.204 44.8356 156.004 45.0356C159.104 45.2356 160.504 44.4356 161.804 41.6356C161.904 41.4356 162.004 41.1356 162.204 40.6356C162.304 43.2356 160.604 45.2356 158.204 45.8356C155.004 46.6356 152.004 45.6356 149.104 44.5356C146.004 43.3356 143.204 41.8356 140.304 40.1356C139.804 39.8356 139.404 39.2356 138.904 39.6356C138.704 39.8356 138.804 40.5356 138.804 41.0356C139.904 47.9356 142.504 54.1356 146.204 60.0356C149.004 64.5356 152.404 68.6356 157.004 71.4356C161.204 74.0356 165.604 74.5356 170.304 73.1356C175.504 71.5356 178.404 66.5356 177.904 60.5356C177.104 52.4356 173.504 45.4356 168.704 39.1356C165.204 34.4356 160.904 30.4356 155.704 27.5356C153.404 26.2356 150.804 25.3356 148.204 24.8356C146.504 24.5356 144.804 24.4356 143.304 25.6356C142.504 26.2356 141.504 26.4356 140.504 26.4356C139.904 26.4356 139.204 26.4356 139.104 25.6356C139.004 24.9356 139.504 24.6356 140.004 24.4356C141.004 23.9356 142.104 23.8356 143.304 23.9356C144.704 24.0356 145.204 23.4356 145.404 22.2356C145.804 19.7356 145.504 17.3356 144.604 15.0356C144.304 14.1356 143.604 14.1356 142.904 14.1356C139.004 14.0356 135.004 14.1356 131.104 13.5356C128.004 13.0356 125.204 11.9356 123.104 9.5356C119.704 5.8356 121.104 1.4356 126.004 0.435602C134.404 -1.3644 143.704 3.6356 147.204 12.0356C147.704 13.2356 148.304 13.6356 149.504 13.5356C151.804 13.3356 154.004 13.3356 156.304 13.2356C157.504 13.2356 158.104 13.0356 158.104 11.6356C157.604 9.8356 158.404 8.5356 159.804 7.7356ZM169.804 13.2356C166.904 13.1356 163.904 13.3356 161.004 13.4356C159.704 13.5356 159.404 13.9356 159.904 15.1356C160.104 15.6356 160.204 16.1356 160.404 16.5356C164.504 25.1356 170.904 31.3356 179.904 34.5356C184.804 36.3356 189.904 36.1356 194.404 33.0356C198.404 30.2356 199.104 25.5356 196.104 21.7356C194.604 19.8356 192.804 18.5356 190.704 17.4356C184.104 14.0356 177.004 13.4356 169.804 13.2356ZM169.604 136.336C175.804 136.136 181.904 135.636 187.704 133.436C190.904 132.236 193.904 130.636 196.004 127.836C199.004 124.036 198.304 119.336 194.304 116.536C190.504 113.936 186.304 113.536 182.004 114.436C175.404 115.736 170.304 119.636 165.904 124.436C163.204 127.336 161.004 130.636 159.804 134.436C159.404 135.536 159.604 136.036 160.904 136.136C163.804 136.236 166.704 136.336 169.604 136.336ZM137.104 136.136C134.704 136.236 132.204 136.236 129.804 136.836C126.804 137.536 123.904 138.736 122.204 141.436C120.304 144.436 121.404 147.436 124.804 148.336C127.804 149.136 130.804 148.936 133.504 147.436C137.904 145.136 140.704 141.436 142.904 137.136C143.404 136.136 143.004 136.036 142.104 136.036C140.504 136.136 138.804 136.136 137.104 136.136ZM137.004 13.3356C138.704 13.3356 140.304 13.3356 142.004 13.3356C143.004 13.3356 143.404 13.1356 142.904 12.1356C140.804 7.9356 137.904 4.2356 133.604 2.0356C130.704 0.535602 127.604 0.335602 124.604 1.2356C121.704 2.1356 120.604 4.8356 122.004 7.6356C123.004 9.6356 124.704 10.8356 126.704 11.7356C129.904 13.1356 133.504 13.1356 137.004 13.3356Z" fill="black"/>
<path d="M87.304 39.5356C85.604 40.4356 83.904 41.3356 82.204 42.2356C78.904 43.9356 75.504 45.5356 71.804 46.0356C67.904 46.5356 65.104 45.1356 64.004 41.9356C63.904 41.6356 63.704 41.3356 64.004 40.9356C64.104 40.9356 64.204 40.9356 64.304 41.0356C66.104 44.7356 67.904 45.6356 71.904 44.7356C75.504 43.9356 78.504 41.8356 81.604 40.0356C86.104 37.3356 90.204 33.9356 94.904 31.4356C97.904 29.8356 101.104 28.4356 104.604 28.1356C107.604 27.8356 110.304 28.2356 112.004 31.0356C112.904 32.5356 113.204 34.2356 112.204 35.9356C112.104 35.7356 111.904 35.6356 112.004 35.6356C113.204 32.2356 110.904 29.3356 106.804 29.7356C103.204 30.1356 100.104 31.6356 97.104 33.4356C94.504 34.9356 92.004 36.6356 89.504 38.1356C88.704 38.6356 88.504 39.1356 88.404 40.0356C86.904 51.5356 82.504 61.6356 73.804 69.5356C70.904 72.1356 67.604 73.7356 63.404 74.7356C64.804 75.1356 65.704 75.4356 66.704 75.8356C73.004 78.1356 77.304 82.8356 80.904 88.2356C85.204 94.8356 87.804 102.036 88.504 109.836C88.604 110.536 88.804 110.936 89.404 111.236C93.204 113.436 96.704 116.136 100.704 117.936C102.904 118.936 105.204 119.836 107.704 119.836C111.204 119.836 112.804 117.736 112.104 114.336C112.104 114.136 112.104 113.936 112.104 113.536C113.904 116.436 112.004 120.336 108.504 121.236C106.304 121.736 104.204 121.536 102.104 121.036C97.004 119.736 92.704 116.936 88.404 114.036C84.104 111.036 79.804 108.136 75.004 105.936C73.504 105.236 71.904 104.736 70.204 104.636C67.304 104.536 65.904 105.336 64.704 107.936C64.604 108.236 64.604 108.636 64.204 108.736C64.304 105.936 66.604 103.736 69.804 103.536C72.604 103.436 75.204 104.136 77.704 105.236C80.704 106.536 83.604 108.036 86.504 109.636C86.804 109.836 87.204 110.136 87.504 110.036C87.904 109.836 87.804 109.336 87.704 109.036C85.404 96.5356 80.204 85.7356 69.404 78.2356C65.104 75.2356 60.304 75.0356 55.404 76.7356C50.804 78.4356 48.104 83.4356 48.604 89.1356C49.404 97.2356 52.904 104.136 57.704 110.436C61.304 115.236 65.604 119.136 70.804 122.136C73.104 123.436 75.704 124.336 78.304 124.736C80.004 125.036 81.704 125.036 83.204 123.936C84.104 123.336 85.204 123.036 86.404 123.136C86.904 123.136 87.404 123.336 87.504 123.936C87.604 124.436 87.204 124.736 86.804 124.936C85.704 125.536 84.504 125.736 83.304 125.636C81.904 125.536 81.404 126.236 81.204 127.436C80.804 129.836 81.104 132.036 81.804 134.336C82.104 135.336 82.704 135.536 83.604 135.536C87.504 135.636 91.504 135.536 95.404 136.136C98.404 136.636 101.204 137.736 103.304 140.036C104.804 141.636 105.704 143.536 105.004 145.836C104.304 147.936 102.504 148.836 100.504 149.336C92.104 151.236 82.804 146.136 79.304 137.736C78.804 136.536 78.204 136.136 77.004 136.236C74.704 136.436 72.504 136.436 70.204 136.536C69.004 136.536 68.404 136.836 68.404 138.236C68.404 139.836 67.604 141.136 66.004 142.236C66.204 140.836 66.704 139.836 66.704 138.636C66.704 137.336 66.404 136.736 64.904 136.836C60.404 137.136 55.904 137.236 51.404 136.936C45.304 136.436 39.304 135.336 33.804 132.536C31.404 131.336 29.404 129.836 27.704 127.736C24.604 123.736 25.204 118.936 29.504 116.236C34.004 113.336 39.004 112.936 44.104 113.836C55.104 115.836 63.004 121.836 67.604 132.136C67.704 132.336 67.804 132.536 67.804 132.736C68.804 135.836 68.804 135.836 72.004 135.736C73.804 135.736 75.504 135.536 77.304 135.536C77.904 135.536 78.304 135.536 78.304 134.636C78.304 129.736 78.404 129.736 80.404 125.736C77.004 125.536 73.704 125.036 70.704 123.736C61.604 120.036 54.804 113.636 49.604 105.536C46.604 100.836 44.404 95.8356 43.804 90.2356C43.004 83.2356 46.104 76.7356 54.104 75.1356C54.304 75.1356 54.404 75.0356 54.904 74.8356C53.804 74.5356 53.004 74.3356 52.204 74.0356C46.304 71.9356 43.104 66.6356 43.704 60.1356C44.304 53.2356 47.204 47.3356 51.204 41.8356C56.804 34.1356 63.704 28.1356 72.904 25.2356C75.304 24.4356 77.904 24.1356 80.704 24.0356C79.304 22.1356 78.304 20.3356 78.104 18.1356C78.104 17.6356 78.004 17.1356 78.104 16.6356C78.304 14.2356 78.304 14.2356 75.904 14.1356C73.804 14.0356 71.804 13.9356 69.704 13.8356C68.804 13.7356 68.404 14.0356 68.204 14.9356C66.004 26.6356 49.904 39.4356 34.104 35.5356C32.404 35.1356 30.804 34.5356 29.404 33.5356C25.204 30.6356 24.404 26.0356 27.604 22.0356C29.704 19.3356 32.404 17.6356 35.504 16.3356C40.504 14.1356 45.804 13.2356 51.204 12.8356C55.704 12.5356 60.204 12.6356 64.704 12.9356C66.704 13.0356 66.704 13.0356 66.704 10.9356C66.704 9.8356 66.204 8.9356 65.904 7.6356C67.604 8.7356 68.304 10.2356 68.404 11.9356C68.504 12.9356 68.804 13.3356 69.804 13.3356C72.404 13.3356 74.904 13.4356 77.504 13.6356C78.504 13.7356 78.904 13.3356 79.304 12.3356C82.304 4.3356 89.904 -0.464399 98.204 0.0356009C99.004 0.0356009 99.904 0.235601 100.704 0.435601C105.304 1.5356 106.704 5.8356 103.504 9.3356C100.704 12.5356 96.804 13.6356 92.704 13.8356C89.604 14.0356 86.504 14.0356 83.404 14.1356C82.404 14.1356 81.904 14.5356 81.604 15.4356C80.904 17.7356 80.604 20.0356 81.004 22.3356C81.204 23.4356 81.704 24.1356 83.004 24.0356C84.204 23.9356 85.404 24.0356 86.604 24.6356C87.104 24.9356 87.504 25.2356 87.304 25.8356C87.204 26.4356 86.604 26.5356 86.104 26.5356C85.004 26.6356 83.904 26.3356 83.104 25.7356C81.204 24.4356 79.204 24.7356 77.204 25.1356C71.804 26.2356 67.404 29.2356 63.404 32.8356C56.504 39.2356 51.604 46.8356 49.204 55.9356C48.304 59.2356 48.004 62.6356 49.004 65.9356C50.004 69.5356 52.204 71.9356 55.804 73.1356C61.904 75.1356 67.304 73.7356 71.904 69.6356C80.604 62.0356 85.504 52.2356 87.504 40.9356C87.504 40.5356 87.604 40.0356 87.304 39.5356ZM56.104 13.2356C50.004 13.4356 43.804 13.8356 38.004 16.1356C34.904 17.3356 32.004 18.8356 29.904 21.4356C26.704 25.4356 27.304 30.2356 31.604 33.1356C35.304 35.6356 39.404 35.9356 43.604 35.1356C50.004 33.9356 55.004 30.1356 59.404 25.5356C62.304 22.5356 64.704 19.1356 66.004 15.0356C66.404 13.8356 66.104 13.4356 64.804 13.4356C61.904 13.2356 59.004 13.1356 56.104 13.2356ZM56.004 136.236C58.904 136.336 61.904 136.136 64.804 136.036C65.904 135.936 66.404 135.636 65.904 134.536C65.704 134.036 65.604 133.436 65.404 132.936C61.504 124.536 55.204 118.436 46.504 115.136C41.504 113.236 36.304 113.236 31.604 116.236C27.204 119.036 26.604 123.936 29.804 128.036C31.304 129.836 33.204 131.136 35.304 132.236C42.004 135.436 49.004 136.036 56.004 136.236ZM82.504 13.3356C87.304 13.2356 91.904 13.5356 96.404 12.5356C98.604 12.0356 100.704 11.1356 102.404 9.4356C104.004 7.8356 105.004 6.0356 104.204 3.7356C103.304 1.5356 101.404 0.935601 99.204 0.735601C93.404 0.235601 89.404 3.1356 86.004 7.3356C84.504 9.1356 83.304 10.9356 82.504 13.3356ZM88.804 136.136C87.104 136.136 85.504 136.136 83.804 136.136C82.804 136.136 82.404 136.336 82.904 137.336C85.004 141.536 87.904 145.236 92.204 147.436C95.104 148.936 98.204 149.136 101.204 148.236C104.104 147.336 105.204 144.636 103.804 141.836C102.804 139.836 101.104 138.636 99.104 137.736C95.904 136.336 92.304 136.336 88.804 136.136Z" fill="black"/>
<path d="M117.404 68.2356C112.504 68.2356 107.604 68.2356 102.704 68.2356C101.704 68.2356 101.204 68.4356 101.104 69.6356C100.904 76.0356 101.504 82.3356 104.304 88.1356C104.904 89.3356 105.504 90.5356 106.304 91.6356C112.204 100.036 123.704 99.5356 129.204 90.7356C130.104 89.2356 130.904 87.7356 131.504 86.1356C131.804 85.4356 131.904 84.5356 133.104 85.0356C134.204 85.5356 133.604 86.2356 133.404 86.8356C130.804 94.0356 126.404 99.4356 118.404 100.936C110.004 102.436 103.104 99.5356 97.704 93.0356C93.004 87.3356 91.504 80.5356 92.004 73.2356C92.404 67.2356 94.304 61.6356 98.104 56.7356C105.604 47.2356 119.604 45.7356 128.304 53.6356C132.104 57.1356 133.904 61.5356 134.004 66.6356C134.004 67.9356 133.604 68.3356 132.304 68.3356C127.304 68.1356 122.304 68.2356 117.404 68.2356ZM113.604 65.9356C117.104 65.9356 120.604 65.9356 124.104 65.9356C125.104 65.9356 125.504 65.7356 125.404 64.6356C125.204 62.3356 124.904 60.0356 124.104 57.8356C122.804 54.2356 120.704 51.5356 116.704 50.8356C112.304 50.0356 108.604 51.3356 105.804 54.8356C103.504 57.7356 102.404 61.1356 101.704 64.7356C101.504 65.8356 102.004 66.0356 103.004 66.0356C106.504 65.9356 110.004 65.9356 113.604 65.9356Z" fill="black"/>
<path d="M6.70398 74.8356C6.70398 71.5356 6.70398 68.3356 6.70398 65.0356C6.70398 63.0356 7.40398 62.4356 9.20398 62.3356C11.204 62.3356 12.104 62.9356 12.104 64.9356C12.204 71.5356 12.204 78.1356 12.104 84.7356C12.104 86.6356 11.204 87.3356 9.20398 87.2356C7.40398 87.2356 6.70398 86.5356 6.70398 84.6356C6.70398 81.3356 6.70398 78.0356 6.70398 74.8356ZM8.20398 74.5356C8.20398 77.9356 8.20398 81.3356 8.20398 84.7356C8.20398 85.5356 8.20398 86.5356 9.50398 86.4356C10.604 86.3356 10.804 85.5356 10.804 84.6356C10.804 78.0356 10.804 71.4356 10.804 64.8356C10.804 64.0356 10.704 63.1356 9.50398 63.0356C8.20398 63.0356 8.20398 63.9356 8.20398 64.8356C8.10398 68.1356 8.20398 71.3356 8.20398 74.5356Z" fill="black"/>
<path d="M0.104 82.2356C0.104 80.9356 0.104 79.6356 0.104 78.4356C0.204 76.6356 0.804 74.9356 2.104 73.6356C3.704 72.0356 4.204 70.2356 4.104 68.0356C4.004 66.7356 4.004 65.4356 4.004 64.1356C4.004 63.4356 3.604 62.8356 2.804 62.8356C2.004 62.8356 1.704 63.4356 1.604 64.1356C1.604 65.5356 1.604 66.9356 1.504 68.3356C1.504 68.9356 1.504 69.5356 0.704 69.5356C-0.096 69.6356 0.004 68.9356 0.004 68.3356C0.004 67.0356 0.004 65.6356 0.104 64.3356C0.304 62.7356 1.104 62.2356 3.004 62.2356C4.504 62.2356 5.504 62.8356 5.604 64.4356C5.804 68.1356 6.104 71.9356 2.904 74.8356C2.004 75.6356 1.604 76.9356 1.604 78.1356C1.604 80.4356 1.604 82.7356 1.504 84.9356C1.504 85.8356 1.704 86.2356 2.704 86.2356C3.704 86.2356 4.104 85.8356 4.004 84.8356C4.004 83.5356 4.004 82.1356 4.004 80.8356C4.004 80.3356 4.104 79.8356 4.804 79.8356C5.404 79.8356 5.504 80.3356 5.504 80.8356C5.504 82.5356 5.504 84.2356 5.504 86.0356C5.504 86.1356 5.504 86.1356 5.504 86.2356C4.404 87.9356 2.704 86.7356 1.304 87.0356C0.604 87.2356 0.004 86.9356 0.004 86.0356C0.004 84.7356 0.004 83.4356 0.104 82.2356Z" fill="black"/>
<path d="M213.604 82.1356C213.604 81.1356 213.604 80.1356 213.604 79.1356C213.604 77.0356 214.104 75.1356 215.604 73.6356C217.304 72.0356 217.804 70.0356 217.704 67.7356C217.604 66.5356 217.704 65.4356 217.604 64.2356C217.604 63.5356 217.304 62.9356 216.504 62.8356C215.604 62.7356 215.204 63.4356 215.104 64.2356C215.004 65.6356 215.104 67.0356 215.004 68.4356C215.004 68.9356 215.204 69.5356 214.404 69.6356C213.604 69.7356 213.604 69.0356 213.604 68.5356C213.604 67.2356 213.504 65.8356 213.704 64.5356C213.904 62.9356 214.704 62.3356 216.704 62.4356C218.404 62.5356 219.104 63.1356 219.104 64.7356C219.204 66.5356 219.104 68.4356 219.104 70.2356C219.104 71.6356 218.404 72.7356 217.504 73.6356C215.504 75.6356 214.904 78.0356 215.004 80.8356C215.104 82.1356 215.004 83.4356 215.004 84.6356C215.004 85.5356 214.804 86.5356 216.304 86.4356C217.904 86.4356 217.604 85.4356 217.604 84.5356C217.604 83.4356 217.604 82.3356 217.604 81.2356C217.604 80.7356 217.504 80.1356 218.304 80.1356C219.104 80.1356 219.004 80.7356 219.004 81.2356C219.004 82.8356 219.004 84.4356 219.004 86.0356C219.004 86.8356 218.704 87.3356 217.804 87.2356C217.704 87.2356 217.704 87.2356 217.604 87.2356C213.604 87.3356 213.604 87.3356 213.604 82.1356Z" fill="black"/>
<path d="M221.704 73.8356C224.304 73.2356 224.304 73.2356 224.304 70.6356C224.304 68.7356 224.304 66.8356 224.304 64.9356C224.304 64.0356 224.404 63.0356 223.104 63.0356C221.804 63.0356 221.904 64.1356 221.804 64.9356C221.704 66.1356 221.804 67.2356 221.804 68.4356C221.804 68.9356 221.804 69.5356 221.104 69.5356C220.404 69.5356 220.304 69.0356 220.304 68.5356C220.304 67.2356 220.204 65.8356 220.304 64.5356C220.404 62.8356 221.304 62.2356 223.104 62.2356C224.904 62.2356 225.704 62.9356 225.704 64.5356C225.604 67.6356 226.404 70.7356 225.204 73.7356C225.004 74.2356 225.604 74.5356 225.604 74.9356C225.904 78.4356 225.904 82.0356 225.604 85.5356C225.504 86.9356 224.204 87.0356 223.004 87.0356C221.704 87.0356 220.604 86.7356 220.404 85.2356C220.204 83.7356 220.304 82.1356 220.304 80.6356C220.304 80.2356 220.504 79.8356 221.004 79.8356C221.604 79.8356 221.804 80.1356 221.804 80.6356C221.804 82.0356 221.804 83.4356 221.904 84.8356C221.904 85.5356 222.104 86.3356 223.104 86.3356C224.204 86.3356 224.404 85.6356 224.404 84.7356C224.404 81.9356 224.404 79.0356 224.404 76.2356C224.404 74.9356 224.004 74.0356 222.504 74.1356C222.204 74.3356 221.904 74.3356 221.704 73.8356Z" fill="black"/>
</g>
<defs>
<clipPath id="clip0_3_451">
<rect width="226" height="150" fill="white"/>
</clipPath>
</defs>
</svg>
