<svg width="26" height="26" viewBox="0 0 26 26" fill="none" xmlns="http://www.w3.org/2000/svg">
<path d="M5.93694 7.41359H20.5425C20.8384 7.4136 21.1311 7.47562 21.4016 7.59566C21.6721 7.7157 21.9144 7.89108 22.113 8.11052C22.3116 8.32995 22.462 8.58856 22.5545 8.86967C22.647 9.15078 22.6796 9.44816 22.6502 9.74263L22.0147 16.0975C21.9624 16.6202 21.7178 17.1048 21.3283 17.4573C20.9388 17.8098 20.4323 18.005 19.907 18.005H9.7922C9.30232 18.0052 8.82752 17.8356 8.44863 17.525C8.06974 17.2145 7.81019 16.7823 7.71417 16.3019L5.93694 7.41359ZM5.93694 7.41359L5.07904 3.9788C5.02166 3.74977 4.8894 3.54647 4.70326 3.4012C4.51712 3.25594 4.28778 3.17704 4.05167 3.17703H2.75952M9.11436 22.2415H11.2326M17.5875 22.2415H19.7057" stroke="black" stroke-width="2.11828" stroke-linecap="round" stroke-linejoin="round"/>
</svg>
