<svg width="26" height="26" viewBox="0 0 26 26" fill="none" xmlns="http://www.w3.org/2000/svg">
<path d="M13.0006 9.74996C11.2051 9.74996 9.75057 11.205 9.75057 13C9.75057 14.7954 11.2056 16.25 13.0006 16.25C14.796 16.25 16.2506 14.7949 16.2506 13C16.2506 11.2046 14.7956 9.74996 13.0006 9.74996ZM13.0006 7.58329C15.991 7.58329 18.4173 10.0068 18.4173 13C18.4173 15.9905 15.9937 18.4166 13.0006 18.4166C10.0101 18.4166 7.5839 15.9931 7.5839 13C7.5839 10.0095 10.0074 7.58329 13.0006 7.58329ZM20.0423 7.31154C20.0423 8.05916 19.4347 8.66573 18.6881 8.66573C17.9405 8.66573 17.3339 8.05823 17.3339 7.31154C17.3339 6.56485 17.9413 5.95829 18.6881 5.95829C19.4337 5.95735 20.0423 6.56485 20.0423 7.31154ZM13.0006 4.33329C10.3199 4.33329 9.88295 4.34039 8.63613 4.39591C7.78667 4.43579 7.21725 4.55004 6.68818 4.75544C6.21801 4.93778 5.87886 5.15552 5.51749 5.51689C5.15473 5.87964 4.93738 6.21789 4.75577 6.68828C4.5499 7.21856 4.43568 7.78708 4.39652 8.63537C4.34046 9.83143 4.3339 10.2494 4.3339 13C4.3339 15.6807 4.341 16.1176 4.39651 17.3643C4.43641 18.2134 4.55081 18.7837 4.75571 19.3115C4.93853 19.7823 5.15672 20.1222 5.51634 20.4819C5.88052 20.8456 6.21978 21.0636 6.6857 21.2435C7.22121 21.4505 7.79028 21.5649 8.63597 21.604C9.83204 21.66 10.25 21.6666 13.0006 21.6666C15.6813 21.6666 16.1182 21.6595 17.3649 21.604C18.2122 21.5643 18.7829 21.4495 19.3121 21.2448C19.7816 21.0625 20.1226 20.8435 20.4825 20.4842C20.8467 20.1194 21.0644 19.781 21.2444 19.314C21.4509 18.7804 21.5655 18.2106 21.6046 17.3646C21.6606 16.1685 21.6673 15.7504 21.6673 13C21.6673 10.3193 21.6601 9.88235 21.6046 8.63561C21.5648 7.78811 21.45 7.21657 21.2451 6.68757C21.0632 6.2187 20.8447 5.87851 20.4836 5.51689C20.1203 5.15354 19.7829 4.93663 19.3122 4.75516C18.7823 4.54946 18.2129 4.43508 17.3651 4.39592C16.1691 4.33985 15.7511 4.33329 13.0006 4.33329ZM13.0006 2.16663C15.9436 2.16663 16.311 2.17746 17.4666 2.23163C18.6194 2.28489 19.4058 2.46725 20.0964 2.73538C20.8105 3.01073 21.4135 3.38267 22.0157 3.98482C22.6169 4.58698 22.9889 5.19183 23.2652 5.90413C23.5323 6.59385 23.7148 7.38107 23.7689 8.53392C23.8204 9.68948 23.8339 10.0569 23.8339 13C23.8339 15.9431 23.8231 16.3104 23.7689 17.466C23.7156 18.6189 23.5323 19.4052 23.2652 20.0958C22.9898 20.8099 22.6169 21.4129 22.0157 22.0151C21.4135 22.6164 20.8077 22.9883 20.0964 23.2645C19.4058 23.5318 18.6194 23.7141 17.4666 23.7683C16.311 23.8198 15.9436 23.8333 13.0006 23.8333C10.0575 23.8333 9.69008 23.8225 8.53453 23.7683C7.38168 23.715 6.59626 23.5318 5.90474 23.2645C5.19154 22.9892 4.58758 22.6164 3.98543 22.0151C3.38328 21.4129 3.01224 20.8072 2.73599 20.0958C2.46786 19.4052 2.2864 18.6189 2.23224 17.466C2.18078 16.3104 2.16724 15.9431 2.16724 13C2.16724 10.0569 2.17807 9.68948 2.23224 8.53392C2.28549 7.38017 2.46786 6.59475 2.73599 5.90413C3.01133 5.19094 3.38328 4.58698 3.98543 3.98482C4.58758 3.38267 5.19245 3.01163 5.90474 2.73538C6.59536 2.46725 7.38078 2.28579 8.53453 2.23163C9.69008 2.18017 10.0575 2.16663 13.0006 2.16663Z" fill="black"/>
</svg>
