<svg width="362" height="98" viewBox="0 0 362 98" fill="none" xmlns="http://www.w3.org/2000/svg">
<g clip-path="url(#clip0_22_1436)">
<path d="M0 57.6111C0.7 55.8111 0.7 53.9111 1.3 52.0111C3.6 44.5111 7.6 38.2111 14.3 33.7111C19.3 30.4111 24.7 28.7111 30.6 29.0111C41.1 29.5111 49.1 34.1111 53.5 43.9111C55 47.2111 55.3 50.7111 55.1 54.3111C55.1 55.2111 54.7 55.4111 53.9 55.4111C40.7 55.2111 27.5 55.6111 14.3 55.2111C13.3 55.2111 12.9 55.4111 12.9 56.5111C12.8 64.3111 13.7 72.0111 16.9 79.2111C18.6 83.1111 21.1 86.7111 25 88.9111C33.4 93.6111 44.1 90.2111 48.6 81.7111C49.6 79.8111 50.5 78.0111 51.1 75.9111C51.7 74.0111 53 74.7111 54.2 75.0111C55.7 75.3111 55.2 76.3111 54.9 77.2111C52 85.9111 47.1 92.8111 37.9 95.6111C28.6 98.6111 20 97.0111 12.3 91.2111C5.6 86.1111 1.7 79.3111 0.4 71.0111C0.4 70.8111 0.1 70.5111 0 70.3111C0 66.1111 0 61.8111 0 57.6111ZM28.6 51.3111C32.8 51.3111 36.9 51.2111 41.1 51.3111C42.5 51.3111 42.9 50.9111 42.8 49.5111C42.6 46.7111 41.9 44.1111 41.1 41.4111C37.9 31.7111 26.5 31.4111 21.1 35.9111C16.5 39.7111 14.8 44.9111 13.5 50.3111C13.3 51.1111 13.8 51.3111 14.4 51.3111C19.1 50.9111 23.8 51.2111 28.6 51.3111Z" fill="black"/>
<path d="M66 51.8111C66 37.9111 66 23.9111 66 10.0111C66 8.81107 66.4 7.91107 67.2 7.11107C69.3 5.21107 71.3 3.21107 73.2 1.11107C74.4 -0.188927 75.8 0.0110727 77.2 0.0110727C78.1 0.0110727 77.8 0.911073 77.8 1.41107C77.8 11.7111 77.8 21.9111 77.8 32.2111C77.8 33.1111 77.3 34.5111 78.2 35.0111C79 35.5111 79.8 34.3111 80.6 33.8111C85.8 30.4111 91.5 28.7111 97.8 29.0111C106.2 29.4111 112.7 33.3111 117.2 40.4111C122.3 48.5111 123.3 57.5111 122.8 66.8111C122.5 72.0111 121.5 77.1111 119.3 81.9111C116.7 87.5111 112.9 92.0111 107.2 94.7111C98.6 98.7111 90.3 97.6111 82.2 93.2111C81.2 92.6111 80.2 92.0111 79.2 91.4111C78.2 90.8111 77.9 91.1111 77.9 92.1111C77.9 92.3111 77.9 92.4111 77.9 92.6111C77.7 96.1111 77.7 96.1111 74.3 96.1111C72 96.1111 69.7 96.1111 67.5 96.2111C66.4 96.3111 66 95.8111 66 94.8111C66 94.0111 66 93.1111 66 92.3111C66 78.8111 66 65.3111 66 51.8111ZM77.9 63.1111C77.9 69.9111 77.9 76.8111 77.9 83.6111C77.9 84.3111 77.8 85.0111 78.5 85.6111C84.1 90.1111 90.2 93.0111 97.5 93.0111C101.2 93.0111 104 91.1111 105.8 87.8111C108 83.7111 108.8 79.1111 109.2 74.6111C109.9 66.9111 109.9 59.2111 109.2 51.5111C108.9 47.9111 108.3 44.2111 106.9 40.8111C104.6 34.9111 100.5 32.6111 94.4 33.4111C88.7 34.1111 83.8 36.5111 79.3 39.9111C78.3 40.7111 77.8 41.5111 77.9 42.8111C77.9 49.5111 77.9 56.3111 77.9 63.1111Z" fill="black"/>
<path d="M202.9 64.0111C202.9 54.0111 202.9 44.0111 202.9 34.0111C202.9 32.8111 203.2 32.1111 204.4 31.7111C207.4 30.8111 210.2 29.2111 213.4 29.0111C214.5 28.9111 215 29.2111 214.8 30.5111C214.6 32.6111 214.7 34.7111 214.7 36.8111C214.7 37.9111 215 38.1111 216.1 37.7111C222.5 35.3111 228.8 32.7111 235.3 30.7111C238.6 29.7111 241.9 28.9111 245.4 29.0111C250.4 29.2111 253.8 32.5111 254.1 37.5111C254.2 39.0111 254.2 40.5111 254.2 42.0111C254.2 59.4111 254.2 76.9111 254.3 94.3111C254.3 95.8111 253.9 96.2111 252.4 96.1111C249.6 96.0111 246.7 96.1111 243.9 96.2111C242.6 96.3111 242.2 95.8111 242.2 94.5111C242.2 76.1111 242.2 57.6111 242.3 39.2111C242.3 38.7111 242.3 38.2111 242.3 37.7111C242.1 35.5111 241.2 34.7111 239 34.7111C236.7 34.7111 234.5 35.5111 232.4 36.2111C226.9 38.2111 221.5 40.2111 216 42.1111C214.8 42.5111 214.8 43.3111 214.8 44.3111C214.8 54.0111 214.8 63.7111 214.8 73.5111C214.8 80.5111 214.8 87.5111 214.8 94.5111C214.8 95.9111 214.5 96.4111 213 96.2111C210.2 95.9111 207.4 96.1111 204.7 96.3111C203.2 96.4111 202.8 95.8111 202.8 94.4111C202.9 84.2111 202.9 74.1111 202.9 64.0111Z" fill="black"/>
<path d="M316.7 69.6111C316.7 78.3111 316.7 86.9111 316.7 95.6111C316.7 96.4111 316.6 97.1111 315.6 97.1111C311.8 97.3111 308.6 96.3111 306.3 93.0111C306.2 92.9111 306.1 92.7111 306 92.6111C305.3 92.0111 305.8 90.5111 304.9 90.4111C303.8 90.2111 303 91.4111 302.1 91.9111C296.4 95.2111 290.5 97.4111 283.8 97.1111C277.2 96.8111 271.6 94.4111 268 88.5111C263.9 81.7111 265.2 72.2111 271 66.2111C275.1 62.0111 280 59.2111 285.3 57.0111C291.4 54.5111 297.5 52.3111 303.6 49.9111C304.3 49.6111 305 49.3111 304.8 48.4111C304.4 45.2111 304.7 41.9111 303.6 38.7111C302.4 35.3111 300.3 33.8111 296.8 33.6111C290.8 33.2111 285.9 36.1111 281.2 39.4111C280.5 39.9111 279.9 40.4111 279.2 40.9111C278.6 41.3111 278.1 42.6111 277.2 42.0111C276.3 41.4111 275.7 40.3111 275.3 39.2111C275.1 38.6111 275.5 38.3111 275.9 38.0111C283.7 31.7111 292.4 27.9111 302.7 29.1111C310.1 30.0111 316.6 36.0111 316.6 44.2111C316.7 52.6111 316.7 61.1111 316.7 69.6111ZM305.3 69.4111H305.2C305.2 64.5111 305.1 59.6111 305.2 54.8111C305.2 53.3111 304.8 53.3111 303.6 53.8111C299.5 55.5111 295.3 57.2111 291.1 58.8111C285.9 60.8111 281.6 63.7111 279.6 69.3111C279 70.9111 278.8 72.6111 278.6 74.3111C278.1 79.1111 278.2 83.9111 279.9 88.6111C280.8 91.0111 283.1 93.3111 286.6 93.1111C293.5 92.8111 299.2 89.6111 304.7 85.8111C305.2 85.4111 305.3 85.0111 305.3 84.4111C305.2 79.4111 305.3 74.4111 305.3 69.4111Z" fill="black"/>
<path d="M184.2 69.6111C184.2 77.8111 184.2 86.0111 184.2 94.3111C184.2 97.2111 184.2 97.2111 181.3 97.1111C177.2 97.0111 174.4 95.0111 172.9 91.2111C172.4 89.9111 171.7 90.5111 171.1 90.9111C169.2 92.1111 167.3 93.2111 165.3 94.1111C159.7 96.6111 153.9 97.9111 147.7 96.7111C138.3 94.9111 132.7 87.6111 133.3 78.0111C133.7 71.5111 137.1 66.9111 142 63.2111C147.1 59.3111 152.9 56.9111 158.9 54.7111C163.1 53.2111 167.2 51.3111 171.5 50.0111C172.1 49.8111 172.4 49.3111 172.4 48.7111C172.3 45.2111 172.2 41.6111 171 38.2111C169.9 35.2111 167.5 33.9111 164.5 33.7111C161.4 33.5111 158.4 34.2111 155.6 35.6111C152.2 37.2111 148.9 39.0111 146.1 41.7111C145.3 42.5111 144.6 42.6111 144.1 41.5111C143.8 40.9111 143.3 40.4111 143.1 39.8111C142.9 39.3111 142.8 38.6111 143.4 38.2111C148.9 34.1111 154.7 30.5111 161.6 29.5111C166 28.9111 170.4 28.7111 174.6 30.5111C179.5 32.6111 183 36.2111 183.9 41.8111C184.5 45.3111 184.1 48.8111 184.2 52.3111C184.3 57.8111 184.2 63.7111 184.2 69.6111ZM172.9 69.4111C172.9 64.6111 172.9 59.7111 172.9 54.9111C172.9 53.3111 172.7 53.1111 171.2 53.8111C168.7 54.8111 166.2 55.7111 163.8 56.8111C160.4 58.2111 156.9 59.2111 153.8 61.2111C150.7 63.2111 148.2 65.8111 147.2 69.6111C145.8 74.7111 145.5 79.8111 146.5 84.9111C147.8 91.2111 150 94.5111 157.9 92.7111C162.8 91.6111 167.2 89.2111 171.4 86.5111C172.5 85.8111 172.9 84.9111 172.9 83.6111C172.9 78.8111 172.9 74.1111 172.9 69.4111Z" fill="black"/>
<path d="M347.7 65.4111C347.7 75.3111 347.7 85.3111 347.7 95.2111C347.7 97.1111 347.5 97.2111 345.7 97.0111C339.7 96.2111 336.3 92.8111 335.9 86.7111C335.4 77.7111 335.7 68.6111 335.7 59.6111C335.6 51.8111 335.7 44.1111 335.7 36.3111C335.7 34.2111 335.7 34.1111 333.4 34.2111C331.6 34.2111 329.8 34.2111 328.1 34.4111C326.9 34.5111 326.5 34.0111 326.5 32.9111C326.5 32.7111 326.5 32.5111 326.5 32.2111C326.5 30.0111 326.5 30.0111 328.6 30.0111C330.5 30.0111 332.5 30.0111 334.4 30.0111C335.5 30.0111 335.9 29.6111 335.9 28.5111C335.8 26.3111 335.8 24.2111 335.6 22.0111C335.5 21.0111 335.8 20.2111 336.5 19.5111C338.8 17.3111 341.1 15.0111 343.4 12.8111C344.5 11.7111 345.9 12.1111 347.2 12.1111C347.8 12.1111 347.7 12.9111 347.7 13.3111C347.6 18.2111 347.8 23.2111 347.4 28.1111C347.3 29.4111 347.7 30.0111 349.1 30.0111C352.6 29.9111 356.1 30.0111 359.6 29.9111C360.8 29.9111 361.2 30.3111 361.1 31.4111C361.1 31.6111 361.1 31.8111 361.1 32.1111C361.4 33.8111 360.7 34.3111 359 34.2111C356 34.0111 352.9 34.2111 349.8 34.2111C347.6 34.2111 347.6 34.2111 347.6 36.5111C347.7 46.1111 347.6 55.7111 347.7 65.4111Z" fill="black"/>
</g>
<defs>
<clipPath id="clip0_22_1436">
<rect width="362" height="98" fill="white"/>
</clipPath>
</defs>
</svg>
